# xmcd CD database file
#
# Track frame offsets:
#	150
#	22500
#	47062
#
# Disc length: 924 seconds
#
# Revision: 0
# Processed by: cddbd v1.5PL3 Copyright (c) Steve Scherf et al.
# Submitted via: CDex 1.51
#
DISCID=14039a03
DTITLE=MAX - 恋するヴェルファーレダンス 〜Saturday Night〜
DYEAR=1995
DGENRE=JPop
TTITLE0=恋するヴェルファーレダンス 〜Saturday Night〜  RAVEMAN MIX
TTITLE1=恋するヴェルファーレダンス 〜Saturday Night〜  NITE MIX
TTITLE2=恋するヴェルファーレダンス 〜Saturday Night〜  カラオケ
EXTD=YEAR: 1995
EXTT0=
EXTT1=
EXTT2=
PLAYORDER=
